<?xml version="1.0" encoding="UTF-8" standalone="no"?>
<!-- Created with Inkscape (http://www.inkscape.org/) -->

<svg
   width="55mm"
   height="27mm"
   viewBox="0 0 55 27"
   version="1.1"
   id="svg1"
   inkscape:version="1.3 (1:1.3+202307231459+0e150ed6c4)"
   sodipodi:docname="WIP02.3_white.svg"
   xmlns:inkscape="http://www.inkscape.org/namespaces/inkscape"
   xmlns:sodipodi="http://sodipodi.sourceforge.net/DTD/sodipodi-0.dtd"
   xmlns="http://www.w3.org/2000/svg"
   xmlns:svg="http://www.w3.org/2000/svg">
  <sodipodi:namedview
     id="namedview1"
     pagecolor="#ffffff"
     bordercolor="#000000"
     borderopacity="0.25"
     inkscape:showpageshadow="2"
     inkscape:pageopacity="0.0"
     inkscape:pagecheckerboard="true"
     inkscape:deskcolor="#d1d1d1"
     inkscape:document-units="mm"
     inkscape:zoom="13.968575"
     inkscape:cx="92.564919"
     inkscape:cy="83.329904"
     inkscape:window-width="1920"
     inkscape:window-height="1176"
     inkscape:window-x="1280"
     inkscape:window-y="0"
     inkscape:window-maximized="1"
     inkscape:current-layer="layer1" />
  <defs
     id="defs1">
    <clipPath
       clipPathUnits="userSpaceOnUse"
       id="clipPath5">
      <path
         style="fill:#000000;stroke-width:1"
         d="m 91.697556,157.13302 v -15.24 h 30.183664 30.18367 v 15.24 15.24 H 121.88122 91.697556 Z"
         id="path6" />
    </clipPath>
  </defs>
  <g
     inkscape:label="Layer 1"
     inkscape:groupmode="layer"
     id="layer1">
    <path
       id="path5"
       clip-path="url(#clipPath5)"
       style="fill:#ffffff;stroke:#1a1a1a;stroke-width:0.0488907;stroke-dasharray:none"
       inkscape:label="path5"
       d="m 148.39199,143.16984 c -0.066,-0.0157 -0.30541,0.2351 -0.76801,0.80156 -1.51976,1.86099 -3.07612,3.21692 -5.63449,4.90911 -1.76223,1.1656 -3.08948,1.90819 -6.30727,3.52719 -5.3709,2.70231 -5.89279,3.0762 -8.23863,5.91056 -0.67446,0.81492 -1.6204,1.87235 -2.10225,2.34965 l -0.87611,0.86754 -0.0345,-0.001 c -3.25588,0.34373 -5.39831,1.27352 -5.81002,1.40026 -0.46802,0.12649 2.52861,-1.54936 5.78737,-1.40076 l -0.60638,-0.0233 c -0.45362,-0.0174 -0.44732,-0.0396 -2.05026,-0.84671 -2.25711,-1.13658 -3.65927,-1.66013 -6.07667,-2.26928 -2.67863,-0.67497 -4.52471,-1.31566 -5.30093,-1.83924 -0.32994,-0.22255 -0.7905,-0.51377 -1.02333,-0.64731 -0.23284,-0.13354 -0.63287,-0.42018 -0.88898,-0.63689 -0.25612,-0.21672 -0.66636,-0.5376 -0.91162,-0.71327 -0.24527,-0.17568 -0.48189,-0.38716 -0.52608,-0.46973 -0.0442,-0.0826 -0.38726,-0.3098 -0.76235,-0.50495 -0.3751,-0.19514 -1.16401,-0.65802 -1.75325,-1.02874 -0.64078,-0.40316 -1.26142,-0.726 -1.54375,-0.80306 -0.25961,-0.0709 -0.56717,-0.18525 -0.68359,-0.25446 -0.62734,-0.37295 -2.05372,-1.05205 -2.20984,-1.05205 -0.108003,0 -0.406398,-0.22048 -0.742271,-0.5486 -0.761915,-0.74434 -0.848094,-0.80045 -1.243644,-0.80355 -0.320489,-0.003 -0.384811,-0.048 -0.953324,-0.67459 -0.335295,-0.36954 -0.67615,-0.68984 -0.757202,-0.71179 -0.08105,-0.022 -0.248189,-0.062 -0.371652,-0.0893 -0.159611,-0.0353 -0.298775,-0.18162 -0.481809,-0.50594 -0.298702,-0.52927 -0.624413,-0.81496 -0.928615,-0.81496 -0.118112,0 -0.284435,-0.0633 -0.369593,-0.14037 -0.148438,-0.13433 -0.154426,-0.11776 -0.154426,0.39185 0,1.20911 1.122943,3.7633 2.309184,5.25185 1.074885,1.34883 1.981298,2.16098 3.024176,2.70926 0.480102,0.25241 1.238946,0.74035 1.685816,1.0843 0.93481,0.71951 1.50759,1.03137 2.33904,1.27229 0.32433,0.094 0.87586,0.25264 1.22511,0.35316 0.71584,0.20604 2.56262,1.05151 3.37164,1.54312 0.40775,0.24777 0.71041,0.35584 1.26681,0.45287 2.05632,0.35859 3.79439,0.83161 5.55573,1.51236 1.35462,0.52354 2.33682,1.04703 3.13073,1.66811 l 0.66712,0.52181 -0.51269,0.18551 c -0.28193,0.10208 -0.6961,0.30102 -0.9209,0.44196 -0.22479,0.14094 -0.65004,0.38222 -0.94457,0.53619 -0.65891,0.34446 -0.97179,0.71149 -1.15099,1.35017 -0.15986,0.56973 -0.19883,0.60901 -1.05421,1.0585 -0.68925,0.36218 -1.02252,0.76829 -1.02539,1.24898 -0.002,0.26299 0.0561,0.28486 0.30061,0.11359 0.0937,-0.0656 0.5308,-0.26064 0.97134,-0.43303 0.68613,-0.2685 0.86895,-0.30739 1.27608,-0.27082 0.2614,0.0235 0.66143,0.12638 0.88898,0.22817 0.22755,0.1018 0.58523,0.21872 0.79477,0.25991 0.20955,0.0412 0.68581,0.15286 1.05834,0.24851 2.13623,0.54847 3.1328,0.74414 4.31826,0.84769 1.20569,0.10531 3.91533,0.0366 4.82582,-0.12251 1.16657,-0.20382 1.80217,-0.42268 3.11374,-1.07141 1.31786,-0.65184 1.51641,-0.68509 2.45074,-0.41219 0.34978,0.10216 0.47136,0.0994 0.9734,-0.0223 0.31562,-0.0765 0.90083,-0.15792 1.30027,-0.18104 0.39943,-0.0231 0.87941,-0.10368 1.06657,-0.17857 0.35995,-0.14402 0.81116,-0.64304 0.63469,-0.70187 -0.26301,-0.0877 -0.0387,-0.17263 0.53071,-0.20138 0.48525,-0.0245 0.68828,-0.075 0.88537,-0.22073 0.14115,-0.10435 0.3806,-0.18974 0.53432,-0.19047 0.42788,-0.002 1.16454,-0.20061 1.63022,-0.43948 l 0.42004,-0.21576 -1.9015,-0.0575 c -2.26122,-0.0687 -3.02588,-0.18298 -4.55917,-0.67955 -0.63418,-0.20539 -1.30614,-0.41307 -1.49381,-0.46179 -0.27156,-0.0705 -0.34477,-0.13051 -0.35827,-0.29365 -0.01,-0.11556 0.0374,-0.22585 0.1081,-0.25297 0.15072,-0.0578 0.16676,-0.48631 0.0237,-0.62944 -0.079,-0.079 -0.079,-0.12386 0,-0.20288 0.0559,-0.0559 0.10193,-0.16565 0.10193,-0.24404 0,-0.0784 0.0762,-0.16264 0.16935,-0.187 0.10132,-0.0265 0.16935,-0.11566 0.16935,-0.22172 0,-0.11425 0.0542,-0.17708 0.15237,-0.17708 0.21992,0 0.3557,-0.16818 0.3557,-0.44046 0,-0.17184 0.0419,-0.2371 0.15236,-0.2371 0.20866,0 0.3557,-0.16431 0.3557,-0.39781 0,-0.13108 0.0498,-0.19444 0.15236,-0.19444 0.20866,0 0.35518,-0.1648 0.35518,-0.3983 0,-0.13753 0.0496,-0.19444 0.16781,-0.19444 0.18809,0 0.46916,-0.36835 0.38504,-0.50445 -0.0305,-0.0493 0.0152,-0.0883 0.10295,-0.0883 0.21475,0 0.36033,-0.16281 0.36033,-0.40277 0,-0.11718 0.0366,-0.17738 0.0885,-0.14533 0.13293,0.0822 0.33511,-0.12433 0.33511,-0.34226 0,-0.13432 0.0636,-0.20789 0.21156,-0.24503 0.16656,-0.0418 0.21157,-0.10694 0.21157,-0.30555 0,-0.18986 0.0392,-0.25247 0.15803,-0.25247 0.18854,0 0.60356,-0.3093 0.60432,-0.45039 2.9e-4,-0.0548 0.11487,-0.16471 0.25428,-0.24404 0.15196,-0.0865 0.25326,-0.21357 0.25326,-0.31745 0,-0.11866 0.0552,-0.17361 0.17502,-0.17361 0.24629,0 0.5024,-0.15238 0.5024,-0.2991 0,-0.0682 0.0675,-0.124 0.15031,-0.124 0.21991,0 0.5271,-0.24053 0.5271,-0.41269 0,-0.0868 0.12379,-0.2078 0.2965,-0.29017 0.20694,-0.0987 0.29737,-0.19884 0.3001,-0.33283 0.004,-0.17829 0.11921,-0.30736 0.54513,-0.60812 0.16063,-0.11344 0.16151,-0.1264 0.0201,-0.28273 -0.14332,-0.15836 -0.13672,-0.16799 0.192,-0.29712 0.20231,-0.0795 0.39828,-0.23598 0.4849,-0.38689 0.08,-0.13941 0.26064,-0.32134 0.401,-0.40426 0.37876,-0.22374 0.97751,-0.79897 0.97751,-0.93896 0,-0.0672 0.26703,-0.37226 0.593,-0.67806 0.32597,-0.30581 0.59248,-0.60227 0.59248,-0.65871 0,-0.0564 0.26652,-0.35643 0.59248,-0.66665 0.32597,-0.31021 0.593,-0.61459 0.593,-0.67657 0,-0.062 0.22866,-0.32242 0.50806,-0.57836 0.48283,-0.44229 0.65292,-0.7123 0.384,-0.60911 -0.068,0.0261 0.12457,-0.20948 0.42776,-0.5233 0.30319,-0.31381 0.53349,-0.61674 0.51167,-0.6736 -0.0218,-0.0569 0.14778,-0.2883 0.3768,-0.51387 0.22902,-0.22558 0.41643,-0.48103 0.41643,-0.56795 0,-0.0869 0.1903,-0.37713 0.42313,-0.64482 0.40999,-0.47138 0.51798,-0.72424 0.33511,-0.7852 -0.0486,-0.0162 0.0264,-0.18145 0.16678,-0.36705 0.27238,-0.36006 0.35937,-0.65229 0.14001,-0.47023 -0.0952,0.079 -0.12554,0.0688 -0.14825,-0.0491 -0.002,-0.013 -0.009,-0.0206 -0.018,-0.0228 z"
       transform="matrix(1.0039066,0,0,1.0418231,-94.370383,-149.05274)"
       sodipodi:nodetypes="ccsssccccccccscsscccccsccccccscscssccscccccsssccccccccscssccscssccccssccccsssssssssscsscssssscssssssccccccssscsssscsssscssc" />
  </g>
</svg>
